<?xml version="1.0" encoding="utf-8"?>
<!-- Generator: Adobe Illustrator 22.1.0, SVG Export Plug-In . SVG Version: 6.00 Build 0)  -->
<svg version="1.1" id="图层_1" xmlns="http://www.w3.org/2000/svg" xmlns:xlink="http://www.w3.org/1999/xlink" x="0px" y="0px"
	 viewBox="0 0 300 300" style="enable-background:new 0 0 300 300;" xml:space="preserve">
<style type="text/css">
	.st0{fill:none;stroke:#00FF33;stroke-width:6;stroke-linecap:round;stroke-linejoin:round;}
	.st1{fill:#00FF33;}
</style>
<g>
	<path class="st0" d="M264.2,199.7L169,150l95.2-49.7"/>
	<path class="st1" d="M149,191.9c0,5.2-4,9.4-9,9.4H43.8c-5,0-9-4.2-9-9.4v-81.3c0-5.2,4-9.4,9-9.4H140c5,0,9,4.2,9,9.4V191.9
		L149,191.9z"/>
	<path class="st1" d="M189.4,109.7l-26.1,16.9V176l25.9,16.7c0.3,0.2,1.8,1.4,4.1,1.4c3.1,0,5.7-2.7,5.7-6.1v-73.5
		c0-3.3-2.5-6.1-5.7-6.1C191,108.4,189.5,109.6,189.4,109.7L189.4,109.7z"/>
</g>
</svg>
